<?xml version="1.0" encoding="UTF-8" standalone="no"?>
<!-- Created with Inkscape (http://www.inkscape.org/) -->

<svg
   version="1.1"
   id="svg1"
   width="1190.4199"
   height="1535.1781"
   viewBox="0 0 1190.4199 1535.1781"
   xmlns="http://www.w3.org/2000/svg"
   xmlns:svg="http://www.w3.org/2000/svg">
  <defs
     id="defs1" />
  <g
     id="g1"
     transform="translate(-129.77456,-140.36738)">
    <path
       style="fill:#000000"
       d="m 826.77121,1674.1812 c -0.8169,-0.9136 -2.5665,-3.6248 -3.8879,-6.0248 -1.3214,-2.4 -4.211,-7.1455 -6.4212,-10.5455 -8.4748,-13.0365 -45.612,-69.3431 -65.2359,-98.909 -11.2835,-17 -20.9211,-31.6828 -21.417,-32.6283 -0.6938,-1.3228 -0.8026,-8.0299 -0.4719,-29.0909 0.2364,-15.0545 0.5959,-59.6081 0.7989,-99.0081 0.2031,-39.4 0.5465,-95.6909 0.7633,-125.0909 0.2167,-29.4 0.8598,-129.3818 1.4291,-222.1817 0.5692,-92.80013 1.2232,-196.38194 1.4531,-230.18194 0.4564,-67.06966 1.4962,-227.23842 2.2768,-350.72402 0.3964,-62.70729 0.3086,-79.13912 -0.4398,-82.25878 -1.1343,-4.72803 -0.5,-7.11477 3.5596,-13.39588 44.44079,-72.2395 88.86198,-144.49203 133.09396,-216.85937 3.2873,-5.38094 7.3202,-11.38802 8.9621,-13.34907 l 2.9852,-3.56555 4.4139,0.29677 c 4.0867,0.27478 5.8957,1.10905 24.4138,11.25943 11,6.02947 28.8363,15.78521 39.6363,21.67942 10.8,5.89422 20.5276,11.55104 21.617,12.57072 1.0893,1.01967 2.5116,3.45298 3.1608,5.40734 1.0961,3.30025 1.0913,3.92656 -0.068,8.79165 -1.6044,6.73363 -1.5503,6.6371 -25.3721,45.23826 -12.488,20.23567 -21.3735,33.87752 -23.2795,35.74084 -3.939,3.85068 -9.1874,5.20157 -14.2522,3.6683 -7.8943,-2.39005 -64.3093,-38.42061 -66.485,-36.05035 -1.0463,1.1397 -86.11886,139.86688 -86.54396,141.92616 -0.1845,0.89328 -0.5148,15.3696 -0.7341,32.1696 -0.2193,16.8 -0.6019,45.92727 -0.8502,64.72727 -0.2894,21.90628 -0.2001,33.92063 0.2485,33.45454 0.385,-0.4 11.9893,-17.58182 25.7874,-38.18182 48.49726,-72.40466 59.77176,-89.1238 62.53036,-92.72727 1.5311,-2 3.2268,-4.26073 3.7683,-5.02385 0.9608,-1.354 1.2373,-1.3308 11.4558,0.96071 184.50453,41.37542 341.63433,159.50617 432.98223,325.51768 6.4177,11.66312 19.3073,37.57898 19.3073,38.81917 0,0.45732 -2.4841,3.85555 -5.5202,7.55162 -6.7024,8.15924 -11.6012,14.69258 -27.6698,36.90194 -6.801,9.4 -27.5438,38.03636 -46.0951,63.63636 -18.5513,25.6 -36.3345,50.30907 -39.5183,54.90907 -3.1838,4.6 -8.6803,12.2001 -12.2144,16.8892 -8.9773,11.9109 -68.255,93.62265 -68.255,94.08655 0,0.6006 67.254,89.8791 70.0567,92.999 0.7312,0.8139 3.3493,4.2227 5.8182,7.5752 7.0332,9.5506 51.4685,68.8298 68.4822,91.3591 42.7379,56.5933 55.6429,73.8683 55.6429,74.4853 0,0.3717 0.79,1.6147 1.7556,2.7622 l 1.7555,2.0863 -4.9069,10.5149 c -61.4691,131.7214 -166.3687,240.1965 -296.2889,306.3878 -55.36523,28.2074 -116.79553,49.2778 -175.33983,60.1412 -6.4365,1.1944 -12.5351,2.3455 -13.5526,2.5581 -1.33286,0.2786 -2.26496,-0.078 -3.33516,-1.2746 z m 20.09426,-28.5746 c 1.4,-0.2621 8.7636,-1.9114 16.3636,-3.6652 91.6298,-21.1448 177.69753,-62.9463 251.98363,-122.3836 32.6331,-26.1102 66.3279,-59.4426 93.1833,-92.1812 23.6566,-28.8389 48.0142,-64.9582 65.6847,-97.402 6.4957,-11.9264 18.8361,-36.7379 18.8415,-37.8825 0,-0.4353 -20.5727,-28.078 -45.7217,-61.4281 l -45.7255,-60.6365 -1.3455,4.7008 c -10.0001,34.9387 -21.141,63.7145 -36.1719,93.4281 -74.0168,146.3199 -213.89643,246.7638 -376.34779,270.2456 -8.3907,1.2129 -15.332,2.2815 -15.4253,2.3747 -0.093,0.093 8.2446,12.9225 18.5284,28.5094 10.2839,15.5869 25.989,39.401 34.9003,52.9203 12.62756,19.1574 16.47846,24.5029 17.45446,24.2286 0.6888,-0.1935 2.3978,-0.5663 3.7978,-0.8284 z M 775.63441,1513.597 c 86.40956,-10.6108 169.31046,-45.7027 238.04669,-100.7649 11.0876,-8.882 30.3558,-25.9707 37.0732,-32.8798 l 3.5254,-3.626 -11.6045,-19.5395 c -6.3825,-10.7467 -16.7757,-28.2122 -23.096,-38.8122 -6.3203,-10.6 -14.0037,-23.5273 -17.0743,-28.7273 -20.18653,-34.1858 -33.75773,-56.86 -34.52193,-57.6775 -0.716,-0.766 -1.7347,0.2208 -5.2552,5.0909 -13.9194,19.2553 -85.4689,118.0263 -134.76776,186.0412 -31.4575,43.4 -59.3837,81.9363 -62.0583,85.6363 -3.7539,5.193 -4.5622,6.7273 -3.5443,6.7273 0.7253,0 6.6999,-0.6608 13.277,-1.4685 z m 1.0589,-53.4406 c 15.9226,-22 46.865,-64.7091 68.76076,-94.9091 21.8958,-30.2 55.7075,-76.8364 75.1371,-103.6364 19.4296,-26.8 35.3352,-49.1656 35.3458,-49.7014 0.016,-0.7892 -17.033,-30.1021 -25.4471,-43.7531 -1.1095,-1.8 -12.8867,-21.6 -26.1715,-44 -13.2849,-22.4 -25.5461,-43.0181 -27.2473,-45.8181 -1.7012,-2.8 -6.9398,-11.5718 -11.6414,-19.4928 -4.7015,-7.9211 -8.6328,-14.3029 -8.7362,-14.1818 -0.2477,0.29 -20.4387,36.09 -47.08956,83.4927 -11.8067,21 -29.8396,52.9998 -40.0733,71.1106 -10.2336,18.1108 -18.7687,33.9835 -18.9667,35.2727 -0.1981,1.2892 -0.5411,23.2894 -0.7623,48.8894 -0.2211,25.6 -0.5607,55.0546 -0.7546,65.4546 -0.1939,10.4 -0.5169,33.4727 -0.7179,51.2727 -0.2009,17.8 -0.5721,47.7455 -0.8247,66.5455 -0.2526,18.8 -0.3022,34.0181 -0.1103,33.8181 0.1919,-0.2 13.3766,-18.3636 29.2992,-40.3636 z m 303.69169,-112.478 c 45.4373,-53.7315 79.0196,-119.279 96.7302,-188.8024 1.9626,-7.7043 3.5683,-14.5491 3.5683,-15.2106 0,-0.6616 -5.192,-8.1036 -11.5378,-16.5378 -6.3458,-8.4342 -22.7365,-30.2257 -36.4238,-48.4256 -33.323,-44.3097 -31.889,-42.4172 -36.2277,-47.811 l -3.8258,-4.7561 1.2803,-2.0062 c 8.0567,-12.6248 43.8933,-62.92463 76.3353,-107.14315 1.7198,-2.344 3.1268,-4.8182 3.1268,-5.4982 0,-1.6471 -6.4657,-21.72957 -10.8587,-33.72752 -7.4203,-20.26535 -16.6949,-40.95422 -26.8013,-59.78522 -21.2907,-39.67062 -47.33,-75.39437 -77.5222,-106.35389 l -8.6788,-8.89934 -3.437,5.99025 c -6.4235,11.1955 -25.5467,45.14297 -50.69303,89.99025 -13.7934,24.6 -26.3954,47.01818 -28.0044,49.81818 -3.9248,6.83011 -57.4459,101.56711 -80.8322,143.0799 l -18.738,33.26174 7.2253,12.1928 c 20.4274,34.4721 58.0107,97.6921 59.779,100.5564 1.1113,1.8 7.8412,13.091 14.9552,25.091 7.1141,12 15.4488,25.909 18.5217,30.909 3.0729,5 8.1397,13.5091 11.2596,18.9091 5.5394,9.5878 30.24983,51.3224 36.38633,61.4546 2.7153,4.4834 22.1298,37.1216 44.7386,75.2112 l 7.518,12.6659 2.4934,-2.8477 c 1.3714,-1.5662 5.7196,-6.6627 9.6627,-11.3256 z M 773.22571,1153.2473 c 15.7333,-27.858 67.03326,-118.9849 71.89816,-127.7165 0.136,-0.2441 -7.81,-13.9896 -17.65766,-30.54554 -9.8477,-16.55579 -21.0143,-35.33789 -24.8145,-41.73789 -3.8002,-6.4 -9.9243,-16.70912 -13.6091,-22.90912 -3.6848,-6.2 -12.7184,-21.4011 -20.0748,-33.7802 l -13.3751,-22.50752 -0.4152,6.50749 c -0.2284,3.57912 -0.5075,19.10753 -0.6201,34.50753 -0.1127,15.4 -0.293,28.9818 -0.4008,30.18182 -0.1077,1.2 -0.4069,25.0909 -0.6649,53.09089 -0.258,28.00004 -0.6227,55.98184 -0.8106,62.18184 -0.1878,6.2 -0.5131,30.7454 -0.7229,54.5454 -0.2097,23.8 -0.5798,50.9636 -0.8224,60.3636 -0.2425,9.4 -0.2696,16.9273 -0.06,16.7273 0.2095,-0.2 10.177,-17.7091 22.1501,-38.9091 z M 876.04627,970.87847 c 10.6494,-18.8971 31.8608,-56.54532 47.1364,-83.66278 l 27.7737,-49.30437 -2.4811,-3.4229 c -1.3646,-1.8826 -25.9303,-34.51381 -54.5905,-72.51381 -28.6602,-38 -70.67106,-93.70217 -93.35746,-123.7826 -22.6865,-30.08042 -41.305,-54.62588 -41.3746,-54.54545 -0.376,0.43504 -1.0475,36.71787 -1.3823,74.69169 -0.2097,23.8 -0.5344,49 -0.7215,56 -0.187,7 -0.5182,34 -0.7358,60 -0.2177,26 -0.5624,50.39087 -0.7661,54.20195 l -0.3703,6.92922 22.6955,38.16169 c 12.4825,20.98892 25.8306,43.44994 29.6625,49.91324 40.33166,68.02871 48.47156,81.65605 48.78526,81.67295 0.2,0.011 9.0768,-15.44174 19.7263,-34.33883 z m 365.64193,-152.3724 c 25.2784,-34.9077 46.1325,-63.91589 46.3423,-64.46264 0.7221,-1.88189 -15.0001,-31.84515 -27.7031,-52.79609 -34.9957,-57.71842 -78.6217,-109.20102 -129.462,-152.77666 -72.367,-62.02638 -158.83303,-107.26302 -250.85263,-131.23918 -6.8749,-1.79129 -13.1364,-3.24788 -13.9145,-3.23688 -1.0349,0.0146 -4.9586,5.33449 -14.6168,19.81818 -7.2612,10.889 -26.83306,40.08909 -43.49306,64.88909 l -30.291,45.09091 8.584,1.29774 c 58.15006,8.79119 106.31776,24.01303 156.94766,49.59821 114.78133,58.0033 202.71063,158.00495 245.88983,279.6495 1.7748,5 3.3892,9.53844 3.5876,10.08542 0.4594,1.26689 -4.6228,8.10628 48.9817,-65.9176 z m -274.41183,-9.44055 c 15.0005,-26.57586 60.55183,-107.4708 63.68163,-113.09264 1.9491,-3.50095 3.5437,-6.63686 3.5437,-6.96869 0,-1.53267 -26.299,-22.87028 -41.96633,-34.04914 -55.2968,-39.45533 -118.1055,-66.54222 -184.21536,-79.44483 -14.7703,-2.88271 -30.7435,-5.35353 -32.6467,-5.04997 -1.269,0.2024 6.7795,11.24208 49.5659,67.98728 28.09436,37.2601 57.21146,75.87828 64.70446,85.81818 58.795,77.99442 71.4809,94.7956 71.5777,94.79757 0.061,0.001 2.6505,-4.49776 5.755,-9.99776 z M 921.29517,243.7928 c 3.056,-5 10.1181,-16.45454 15.6936,-25.45454 9.9631,-16.08237 10.1111,-16.38239 8.6099,-17.45455 -3.4387,-2.456 -50.1804,-27.69942 -50.8661,-27.47085 -0.9056,0.30186 -31.9739,50.87925 -31.5278,51.32537 0.1743,0.17429 11.7056,6.94761 25.6251,15.05183 18.662,10.86533 25.5184,14.51943 26.1086,13.9143 0.4402,-0.45136 3.3007,-4.91156 6.3567,-9.91156 z M 559.59271,1664.5803 c -80.8961,-20.8242 -152.2154,-53.7538 -219.6363,-101.4106 -51.00464,-36.0528 -99.59208,-82.4731 -137.51039,-131.3769 -21.2495,-27.4059 -42.88107,-60.2822 -57.90116,-88 -8.98143,-16.5742 -14.77029,-27.8682 -14.77029,-28.8166 0,-0.7667 16.14335,-22.7762 17.53789,-23.9107 0.36026,-0.2931 28.41338,-39.9397 77.96242,-110.1818 2.82161,-4 6.65931,-9.4 8.52823,-12 1.86891,-2.6 8.56515,-12.0909 14.88054,-21.0909 6.31539,-9 13.01989,-18.4909 14.8989,-21.0909 14.74884,-20.4082 66.19206,-93.9109 66.19206,-94.5762 0,-0.7489 -6.2508,-10.1544 -28.0132,-42.15104 -3.6728,-5.4 -12.23036,-17.99999 -19.01686,-27.99999 -37.4565,-55.19272 -87.35689,-128.69245 -93.81435,-138.18188 -4.08293,-6 -11.18223,-16.47273 -15.77622,-23.27273 -9.07602,-13.43429 -20.02141,-29.56397 -32.81893,-48.36363 -4.49282,-6.6 -8.56003,-12.74617 -9.03824,-13.65815 -0.91097,-1.7373 1.0218,-5.58938 17.59588,-35.06912 23.01086,-40.92863 52.64381,-81.84696 85.32363,-117.81818 11.68723,-12.86433 38.95799,-39.82985 50.83097,-50.26202 73.01452,-64.1541 159.33642,-111.85538 250.14382,-138.22886 26.8324,-7.79303 30.8706,-8.47051 34.1697,-5.73255 0.5497,0.45624 24.0222,29.93173 52.1612,65.50109 28.1389,35.56935 51.4119,64.68298 51.7178,64.69695 0.3059,0.014 0.4696,-31.31097 0.3637,-69.61097 l -0.1926,-69.63637 -39.3585,-58.18181 c -53.3925,-78.9274 -52.6341,-77.82811 -53.6342,-77.74261 -0.4861,0.0416 -14.2537,9.04157 -30.5946,20 -38.1547,25.58712 -41.584,27.68179 -44.4127,27.1278 -5.5578,-1.08844 -6.7479,-2.59235 -31.7587,-40.13277 -13.2507,-19.88883 -24.7452,-37.62349 -25.5434,-39.41036 -1.7445,-3.90562 -1.8918,-9.75908 -0.3213,-12.76817 1.8482,-3.54109 4.4105,-5.48265 23.078,-17.48722 9.8,-6.30214 27.4238,-17.64427 39.164,-25.20472 11.7402,-7.56045 22.1524,-14.05294 23.1382,-14.42775 2.7987,-1.06407 8.3757,-0.74587 10.897,0.62174 1.6203,0.8789 5.569,6.13473 13.5006,17.96951 14.0401,20.94928 37.222,55.35197 43.1256,64 42.9941,62.9801 100.8982,148.97619 101.8589,151.2753 1.3992,3.34872 1.3149,5.71495 -0.3885,10.90652 -1.3944,4.2501 -1.4551,8.45097 -2.3311,161.45454 -0.4947,86.4 -0.987,185.56363 -1.094,220.36363 -0.1071,34.8 -0.6664,123.32727 -1.2431,196.72729 -1.2473,158.77423 -2.4864,338.29383 -2.9942,433.81813 -0.5328,100.2282 -0.9304,123.0402 -2.1869,125.47 -0.5661,1.0948 -2.6167,3.7483 -4.5568,5.8966 -1.9401,2.1484 -5.7675,6.688 -8.5054,10.088 -2.7379,3.4 -6.3431,7.8181 -8.0115,9.8181 -1.6685,2 -16.4133,20.1637 -32.7662,40.3637 -44.5299,55.0058 -51.8635,63.9735 -56.0413,68.528 -2.1009,2.2903 -4.0301,4.8267 -4.2871,5.6363 -0.2894,0.9118 -1.0713,1.4526 -2.0545,1.4211 -0.8731,-0.028 -8.2965,-1.778 -16.4965,-3.8888 z m 47.1874,-75.6114 c 22.0285,-27.1532 39.9,-49.6149 39.7146,-49.915 -0.1855,-0.3001 -2.2234,-0.7731 -4.5287,-1.051 -6.9052,-0.8325 -30.0457,-5.3278 -41.3587,-8.0344 -65.6274,-15.7013 -126.1454,-43.6132 -180.2873,-83.1514 -76.508,-55.8714 -136.6673,-133.8577 -170.85201,-221.4805 -2.52596,-6.4745 -8.74807,-23.8147 -10.30089,-28.7071 -0.17132,-0.5397 -5.59306,6.4966 -12.04831,15.6364 -6.45525,9.1398 -15.56396,22.0178 -20.24156,28.6178 -27.55366,38.8776 -48.84678,69.2527 -49.20989,70.1989 -0.51865,1.3516 11.00059,23.0322 21.80409,41.0379 57.82034,96.3668 139.42897,174.6717 239.03037,229.3541 37.9807,20.8518 86.0228,40.6109 126.5455,52.0465 18.0586,5.0962 20.7129,5.7571 21.2041,5.2801 0.2624,-0.2546 18.5002,-22.6792 40.5287,-49.8323 z m 49.4468,-76.8003 c -0.9177,-1.3266 -15.4207,-22.6887 -35.1924,-51.8361 -4.407,-6.4969 -11.797,-17.3761 -16.4223,-24.1761 -15.2308,-22.3919 -42.674,-62.8335 -107.2013,-157.9769 -13.6,-20.0527 -24.9518,-36.2386 -25.2263,-35.9686 -0.2745,0.27 -8.4203,14.7273 -18.1019,32.1273 -9.6816,17.4 -27.912,50.1178 -40.5122,72.7062 l -22.9093,41.0699 5.6543,5.334 c 3.1099,2.9337 9.7831,8.7896 14.8294,13.0133 66.3968,55.5726 146.9712,92.0383 232.8115,105.3639 13.8659,2.1525 13.5154,2.1427 12.2705,0.3431 z m 17.5477,-146.7767 V 1228.082 l -4.591,-7.9628 c -2.525,-4.3795 -14.5165,-24.8173 -26.6477,-45.4173 -12.1313,-20.6 -25.3319,-43.0182 -29.3347,-49.8182 -4.0028,-6.8 -10.2653,-17.4364 -13.9166,-23.6364 -3.6514,-6.2 -10.7213,-18.2271 -15.7108,-26.7268 -4.9896,-8.4998 -9.2356,-15.4417 -9.4356,-15.4263 -0.2,0.015 -10.4918,18.2606 -22.8707,40.545 -12.3788,22.2845 -32.7991,58.9781 -45.3782,81.5413 -15.9867,28.6753 -22.6753,41.3187 -22.2203,42.0027 0.3581,0.5382 12.5965,18.5596 27.1965,40.0475 14.5999,21.4878 30.1059,44.3139 34.4576,50.7245 32.3043,47.5884 44.0081,64.8281 51.1148,75.2921 4.4825,6.6 11.5821,17.0727 15.7769,23.2727 4.1948,6.2 10.858,16.0182 14.8071,21.8182 3.9492,5.8 15.1676,22.3273 24.9299,36.7273 21.0872,31.1048 21.408,31.5734 21.6409,31.6087 0.1,0.015 0.1819,-61.7618 0.1819,-137.2823 z m -281.2988,-20.1446 c 8.2058,-14.8 26.2071,-47.2 40.003,-72 13.7959,-24.8 26.487,-47.7091 28.2023,-50.9091 1.7154,-3.2 5.8198,-10.5636 9.121,-16.3636 3.3011,-5.8 16.3873,-29.2 29.0803,-52 12.6931,-22.8 31.8671,-57.2175 42.6088,-76.4832 10.7418,-19.2657 19.8931,-35.8243 20.3361,-36.7967 0.7354,-1.6141 -3.3236,-8.7944 -46.5955,-82.42593 -26.0706,-44.36182 -48.0961,-81.6375 -48.9455,-82.83491 -0.8495,-1.19741 -2.7253,-4.30651 -4.1686,-6.90909 -3.8928,-7.01975 -5.6253,-9.98632 -38.016,-65.09561 -3.9967,-6.8 -10.4376,-17.76364 -14.3131,-24.36364 -17.8862,-30.46051 -36.6844,-62.29736 -37.4535,-63.43175 -0.7442,-1.0978 -1.7387,-0.2569 -8.1705,6.90909 -36.318,40.4637 -64.0443,83.6829 -84.79919,132.18332 -5.83327,13.63132 -14.96061,38.16235 -15.54957,41.79177 -0.31381,1.9337 1.46483,4.8975 14.07248,23.4494 7.93742,11.6798 20.32258,29.92232 27.52258,40.53892 7.2,10.6167 18.6059,27.39929 25.3465,37.29479 6.7405,9.89544 12.7634,18.97254 13.3842,20.17124 0.6207,1.1987 2.8784,4.8919 5.0171,8.2071 2.1387,3.3153 3.8886,6.1591 3.8886,6.3195 0,1.1666 -7.2633,11.6305 -55.29221,79.6575 -21.322,30.2 -38.90988,55.6199 -39.08419,56.4886 -0.41207,2.0538 5.94623,22.612 11.99526,38.7841 21.80631,58.2993 53.45344,110.0019 95.56984,156.1344 7.6836,8.4162 9.755,10.308 10.4516,9.5448 0.4777,-0.5236 7.5825,-13.061 15.7882,-27.861 z m 281.1202,-387.45453 -0.1851,-77.27271 -1.9093,3.27273 c -1.0501,1.8 -13.4657,24.05456 -27.5903,49.45456 -14.1245,25.40002 -33.137,59.56011 -42.2499,75.91135 l -16.5689,29.7295 22.276,37.9069 c 12.2517,20.8487 25.7577,43.7977 30.0132,50.9977 4.2555,7.2 14.1029,23.9236 21.8832,37.1637 l 14.146,24.0728 0.1851,-76.9819 c 0.1019,-42.34 0.1019,-111.7546 0,-154.25463 z m -82.5837,30.72729 c 9.0091,-16.19999 27.7618,-49.90911 41.6729,-74.90911 13.911,-24.99998 28.8479,-51.84955 33.193,-59.6657 l 7.9004,-14.21117 -0.1839,-129.67616 -0.1838,-129.67616 -21.4993,30.43279 c -11.8247,16.73803 -55.7785,78.96477 -97.6752,138.28164 l -76.1758,107.84885 43.0756,73.24201 c 23.6916,40.28322 45.1774,76.79385 47.7462,81.13475 2.5688,4.341 4.9134,7.6137 5.2102,7.2728 0.2968,-0.341 7.9107,-13.8745 16.9197,-30.07454 z M 247.96014,862.33825 c 14.84812,-39.11645 36.3261,-78.88516 61.47007,-113.81818 29.0412,-40.34755 67.9009,-79.76351 107.6171,-109.15759 67.6282,-50.05188 147.7398,-82.98744 229.0909,-94.18414 5,-0.68817 9.1934,-1.32942 9.3187,-1.42499 0.2098,-0.15998 -96.3478,-122.41708 -98.3554,-124.53353 -0.7209,-0.75991 -3.0051,-0.32069 -12.1077,2.32817 -90.8484,26.43677 -172.6881,71.68623 -244.6738,135.28095 -12.04108,10.63752 -37.79159,36.38468 -49.51575,49.50931 -32.36681,36.23307 -58.51845,72.99094 -82.28202,115.65286 -4.0055,7.19092 -8.12719,14.74824 -9.15932,16.79402 l -1.8766,3.71962 11.2988,16.64402 c 6.21433,9.15421 14.7231,21.71675 18.90837,27.91675 4.18527,6.2 14.28114,21.09091 22.43526,33.09091 8.15412,12 19.18293,28.25282 24.50847,36.11739 5.32554,7.86457 9.88068,14.08275 10.12254,13.81818 0.24186,-0.26456 1.68203,-3.75375 3.20038,-7.75375 z m 227.94047,-36.19803 c 4.5693,-6.49109 11.9933,-17.03834 16.4979,-23.43834 4.5045,-6.4 43.2077,-61.21285 86.007,-121.80633 42.7993,-60.59348 77.702,-110.28501 77.5613,-110.42561 -0.9132,-0.9133 -36.6695,5.66321 -53.1014,9.76675 -78.6899,19.65122 -147.4505,56.42279 -207.4759,110.95333 l -9.6578,8.77369 1.5722,2.64181 c 0.8648,1.453 7.6294,12.95091 15.0325,25.55091 20.853,35.49155 32.4704,55.25463 40.4,68.72727 4.0023,6.8 11.0589,18.82727 15.6812,26.72727 4.6224,7.9 8.5777,14.35635 8.7897,14.34743 0.212,-0.009 4.124,-5.32709 8.6933,-11.81818 z m 62.2448,-584.53405 c 14.996,-10.00264 27.2655,-18.36505 27.2655,-18.58314 0,-0.737 -31.3182,-46.50101 -31.9793,-46.72994 -0.3604,-0.12485 -12.9549,7.68899 -27.9876,17.36408 -18.3404,11.8039 -27.1324,17.8601 -26.7246,18.40881 0.3342,0.44975 7.5831,11.37228 16.1086,24.27228 8.5255,12.9 15.6249,23.45454 15.7764,23.45454 0.1515,0 12.545,-8.18398 27.541,-18.18663 z"
       id="path1" />
  </g>
</svg>
